# xmcd
#
# Track frame offsets: 
#        150
#        26949
#        37991
#        69218
#        85879
#        101525
#        124392
#        144656
#        163642
#        190061
#
# Disc length: 2930 seconds
#
# Revision: 3
# Processed by: cddbd v1.5.2PL0 Copyright (c) Steve Scherf et al.
# Submitted via: ExactAudioCopyFreeDBPlugin 1.0
#
DISCID=840b700a
DTITLE=Al Jarreau - My Favorite Things
DYEAR=2000
DGENRE=Vocal Jazz
TTITLE0=A Sleepin' Bee
TTITLE1=Call Me
TTITLE2=Come Rain Or Shine
TTITLE3=Joey
TTITLE4=Let's Get Married
TTITLE5=My Favourite Things
TTITLE6=One Note Samba
TTITLE7=Sophisticated Lady
TTITLE8=Stockholm Sweetnin'
TTITLE9=The Masquerade Is Over
EXTD=
EXTT0=
EXTT1=
EXTT2=
EXTT3=
EXTT4=
EXTT5=
EXTT6=
EXTT7=
EXTT8=
EXTT9=
PLAYORDER=
